<svg width="20" height="20" viewBox="0 0 20 20" fill="none" xmlns="http://www.w3.org/2000/svg">
<path fill-rule="evenodd" clip-rule="evenodd" d="M13.1502 1.98991C12.4867 1.98991 11.8504 2.2535 11.3812 2.72268L3.72283 10.381C2.94091 11.1629 2.50163 12.2235 2.50163 13.3293C2.50163 14.4351 2.94091 15.4956 3.72283 16.2775C4.50475 17.0594 5.56527 17.4987 6.67108 17.4987C7.77688 17.4987 8.8374 17.0594 9.61932 16.2775L17.2777 8.61917C17.6031 8.29374 18.1307 8.29374 18.4562 8.61917C18.7816 8.94461 18.7816 9.47225 18.4562 9.79768L10.7978 17.456C9.70335 18.5505 8.21891 19.1654 6.67108 19.1654C5.12324 19.1654 3.6388 18.5505 2.54432 17.456C1.44984 16.3615 0.834961 14.8771 0.834961 13.3293C0.834961 11.7814 1.44984 10.297 2.54432 9.20251L10.2027 1.54417C10.9844 0.762424 12.0447 0.323242 13.1502 0.323242C14.2558 0.323242 15.3161 0.762424 16.0978 1.54417C16.8796 2.32592 17.3188 3.3862 17.3188 4.49176C17.3188 5.59732 16.8796 6.6576 16.0978 7.43935L8.43116 15.0977C7.96215 15.5667 7.32603 15.8302 6.66274 15.8302C5.99945 15.8302 5.36333 15.5667 4.89432 15.0977C4.4253 14.6287 4.16181 13.9925 4.16181 13.3293C4.16181 12.666 4.4253 12.0299 4.89432 11.5608L11.9697 4.49383C12.2953 4.16858 12.8229 4.16889 13.1482 4.49452C13.4734 4.82015 13.4731 5.34779 13.1475 5.67303L6.07283 12.7394C5.91659 12.8958 5.82848 13.1082 5.82848 13.3293C5.82848 13.5505 5.91638 13.7627 6.07283 13.9192C6.22929 14.0756 6.44148 14.1635 6.66274 14.1635C6.884 14.1635 7.0962 14.0756 7.25265 13.9192L14.9193 6.26084C15.3883 5.79168 15.6521 5.15514 15.6521 4.49176C15.6521 3.82823 15.3885 3.19187 14.9193 2.72268C14.4501 2.2535 13.8138 1.98991 13.1502 1.98991Z" fill="#27272A"/>
</svg>
