<svg width="17" height="16" viewBox="0 0 17 16" fill="none" xmlns="http://www.w3.org/2000/svg">
<path d="M9.1665 3.33317C9.1665 2.96498 8.86803 2.6665 8.49984 2.6665C8.13165 2.6665 7.83317 2.96498 7.83317 3.33317V7.33317H3.83317C3.46498 7.33317 3.1665 7.63165 3.1665 7.99984C3.1665 8.36803 3.46498 8.6665 3.83317 8.6665H7.83317V12.6665C7.83317 13.0347 8.13165 13.3332 8.49984 13.3332C8.86803 13.3332 9.1665 13.0347 9.1665 12.6665V8.6665H13.1665C13.5347 8.6665 13.8332 8.36803 13.8332 7.99984C13.8332 7.63165 13.5347 7.33317 13.1665 7.33317H9.1665V3.33317Z" fill="#2D3648"/>
</svg>
